<mxfile host="app.diagrams.net" modified="2023-04-11T12:34:32.472Z" agent="5.0 (Macintosh)" etag="iRv13DC2kn9nI_NzU6eJ" version="20.8.16" type="github">
  <diagram name="Page-1" id="qZn8wsPpPrlKjOJCO_ds">
    <mxGraphModel dx="1194" dy="686" grid="1" gridSize="10" guides="1" tooltips="1" connect="1" arrows="1" fold="1" page="1" pageScale="1" pageWidth="850" pageHeight="1100" math="0" shadow="0">
      <root>
        <mxCell id="0" />
        <mxCell id="1" parent="0" />
        <mxCell id="GHXti5v1SjIi2ltKqpml-1" value="" style="shape=flexArrow;endArrow=classic;html=1;rounded=0;strokeColor=#82b366;fillColor=#d5e8d4;shadow=0;" edge="1" parent="1">
          <mxGeometry width="50" height="50" relative="1" as="geometry">
            <mxPoint x="100" y="410" as="sourcePoint" />
            <mxPoint x="700" y="270" as="targetPoint" />
          </mxGeometry>
        </mxCell>
        <mxCell id="GHXti5v1SjIi2ltKqpml-3" value="" style="ellipse;shape=cloud;whiteSpace=wrap;html=1;sketch=1;curveFitting=1;jiggle=2;fillColor=#2ECEFF;" vertex="1" parent="1">
          <mxGeometry x="360" y="310" width="60" height="60" as="geometry" />
        </mxCell>
        <mxCell id="GHXti5v1SjIi2ltKqpml-5" value="" style="shape=parallelogram;perimeter=parallelogramPerimeter;whiteSpace=wrap;html=1;fixedSize=1;sketch=1;fillColor=#f8cecc;rotation=90;size=35;strokeColor=#b85450;" vertex="1" parent="1">
          <mxGeometry x="460" y="40" width="210" height="180" as="geometry" />
        </mxCell>
        <mxCell id="GHXti5v1SjIi2ltKqpml-7" value="" style="endArrow=classic;html=1;rounded=0;shadow=0;sketch=0;strokeColor=default;fillColor=none;exitX=0.625;exitY=0.2;exitDx=0;exitDy=0;exitPerimeter=0;" edge="1" parent="1" source="GHXti5v1SjIi2ltKqpml-3">
          <mxGeometry width="50" height="50" relative="1" as="geometry">
            <mxPoint x="510" y="440" as="sourcePoint" />
            <mxPoint x="530" y="160" as="targetPoint" />
          </mxGeometry>
        </mxCell>
        <mxCell id="GHXti5v1SjIi2ltKqpml-8" value="" style="endArrow=classic;html=1;rounded=0;shadow=0;sketch=0;strokeColor=default;fillColor=none;exitX=0.625;exitY=0.2;exitDx=0;exitDy=0;exitPerimeter=0;" edge="1" parent="1" source="GHXti5v1SjIi2ltKqpml-3">
          <mxGeometry width="50" height="50" relative="1" as="geometry">
            <mxPoint x="400" y="380" as="sourcePoint" />
            <mxPoint x="510" y="140" as="targetPoint" />
          </mxGeometry>
        </mxCell>
        <mxCell id="GHXti5v1SjIi2ltKqpml-9" value="Container Scattering" style="text;html=1;align=center;verticalAlign=middle;resizable=0;points=[];autosize=1;strokeColor=none;fillColor=none;fontSize=26;fontFamily=Verdana;" vertex="1" parent="1">
          <mxGeometry x="110" width="290" height="40" as="geometry" />
        </mxCell>
        <mxCell id="GHXti5v1SjIi2ltKqpml-10" value="Fluorescence" style="text;html=1;align=center;verticalAlign=middle;resizable=0;points=[];autosize=1;strokeColor=none;fillColor=none;fontSize=26;fontFamily=Verdana;" vertex="1" parent="1">
          <mxGeometry x="210" y="46" width="190" height="40" as="geometry" />
        </mxCell>
        <mxCell id="GHXti5v1SjIi2ltKqpml-11" value="Coherent Scattering" style="text;html=1;align=center;verticalAlign=middle;resizable=0;points=[];autosize=1;strokeColor=none;fillColor=none;fontSize=26;fontFamily=Verdana;" vertex="1" parent="1">
          <mxGeometry x="110" y="92" width="290" height="40" as="geometry" />
        </mxCell>
        <mxCell id="GHXti5v1SjIi2ltKqpml-12" value="Incoherent Scattering" style="text;html=1;align=center;verticalAlign=middle;resizable=0;points=[];autosize=1;strokeColor=none;fillColor=none;fontSize=26;fontFamily=Verdana;" vertex="1" parent="1">
          <mxGeometry x="90" y="138" width="310" height="40" as="geometry" />
        </mxCell>
        <mxCell id="GHXti5v1SjIi2ltKqpml-13" value="Multiple Scattering" style="text;html=1;align=center;verticalAlign=middle;resizable=0;points=[];autosize=1;strokeColor=none;fillColor=none;fontSize=26;fontFamily=Verdana;" vertex="1" parent="1">
          <mxGeometry x="130" y="184" width="270" height="40" as="geometry" />
        </mxCell>
        <mxCell id="GHXti5v1SjIi2ltKqpml-14" value="Air Scattering" style="text;html=1;align=center;verticalAlign=middle;resizable=0;points=[];autosize=1;strokeColor=none;fillColor=none;fontSize=26;fontFamily=Verdana;" vertex="1" parent="1">
          <mxGeometry x="200" y="230" width="200" height="40" as="geometry" />
        </mxCell>
        <mxCell id="GHXti5v1SjIi2ltKqpml-15" value="(attenuation)" style="text;html=1;align=center;verticalAlign=middle;resizable=0;points=[];autosize=1;strokeColor=none;fillColor=none;fontSize=26;fontFamily=Verdana;" vertex="1" parent="1">
          <mxGeometry x="460" y="400" width="200" height="40" as="geometry" />
        </mxCell>
        <mxCell id="GHXti5v1SjIi2ltKqpml-16" value="(detector efficiency)" style="text;html=1;align=center;verticalAlign=middle;resizable=0;points=[];autosize=1;strokeColor=none;fillColor=none;fontSize=26;fontFamily=Verdana;" vertex="1" parent="1">
          <mxGeometry x="370" y="450" width="290" height="40" as="geometry" />
        </mxCell>
        <mxCell id="GHXti5v1SjIi2ltKqpml-17" value="" style="endArrow=classic;html=1;rounded=0;shadow=0;sketch=0;strokeColor=default;fillColor=none;exitX=0.88;exitY=0.25;exitDx=0;exitDy=0;exitPerimeter=0;" edge="1" parent="1" source="GHXti5v1SjIi2ltKqpml-3">
          <mxGeometry width="50" height="50" relative="1" as="geometry">
            <mxPoint x="407.5" y="332" as="sourcePoint" />
            <mxPoint x="570" y="160" as="targetPoint" />
          </mxGeometry>
        </mxCell>
        <mxCell id="GHXti5v1SjIi2ltKqpml-18" value="" style="endArrow=classic;html=1;rounded=0;shadow=0;sketch=0;strokeColor=default;fillColor=none;exitX=0.8;exitY=0.8;exitDx=0;exitDy=0;exitPerimeter=0;" edge="1" parent="1" source="GHXti5v1SjIi2ltKqpml-3">
          <mxGeometry width="50" height="50" relative="1" as="geometry">
            <mxPoint x="421.21320343559637" y="328.78679656440363" as="sourcePoint" />
            <mxPoint x="580" y="170" as="targetPoint" />
          </mxGeometry>
        </mxCell>
        <mxCell id="GHXti5v1SjIi2ltKqpml-19" value="" style="endArrow=classic;html=1;rounded=0;shadow=0;sketch=0;strokeColor=default;fillColor=none;" edge="1" parent="1">
          <mxGeometry width="50" height="50" relative="1" as="geometry">
            <mxPoint x="310" y="360" as="sourcePoint" />
            <mxPoint x="530" y="140" as="targetPoint" />
          </mxGeometry>
        </mxCell>
      </root>
    </mxGraphModel>
  </diagram>
</mxfile>
